<?xml version="1.0" standalone="no"?>
<!DOCTYPE svg PUBLIC "-//W3C//DTD SVG 20010904//EN"
 "http://www.w3.org/TR/2001/REC-SVG-20010904/DTD/svg10.dtd">
<svg version="1.0" xmlns="http://www.w3.org/2000/svg"
 width="367.000000pt" height="117.000000pt" viewBox="0 0 367.000000 117.000000"
 preserveAspectRatio="xMidYMid meet">
<metadata>
Created by potrace 1.16, written by Peter Selinger 2001-2019
</metadata>
<g transform="translate(0.000000,117.000000) scale(0.100000,-0.100000)"
fill="#000000" stroke="none">
<path d="M1870 620 l0 -150 263 2 262 3 -257 2 -258 3 0 140 0 140 215 0 215
0 0 -35 0 -35 -180 0 -181 0 3 -72 3 -73 215 0 215 -1 -212 3 -213 3 0 65 0
65 180 0 180 0 0 45 0 45 -225 0 -225 0 0 -150z"/>
</g>
</svg>
